HIERARCHY
ROOT Hips
{
	OFFSET -0.001795 -0.223333 0.028219
	CHANNELS 6 Xposition Yposition Zposition Zrotation Yrotation Xrotation 
	JOINT LeftUpLeg
	{
		OFFSET 0.069520 -0.091406 -0.006815
		CHANNELS 3 Zrotation Yrotation Xrotation
		JOINT LeftLeg
		{
			OFFSET 0.034277 -0.375199 -0.004496
			CHANNELS 3 Zrotation Yrotation Xrotation
			JOINT LeftFoot
			{
				OFFSET -0.013596 -0.397961 -0.043693
				CHANNELS 3 Zrotation Yrotation Xrotation
				JOINT LeftToe
				{
					OFFSET 0.026358 -0.055791 0.119288
					CHANNELS 3 Zrotation Yrotation Xrotation
					End Site
					{
						OFFSET 0.000000 0.000000 0.000000
					}
				}
			}
		}
	}
	JOINT RightUpLeg
	{
		OFFSET -0.067670 -0.090522 -0.004320
		CHANNELS 3 Zrotation Yrotation Xrotation
		JOINT RightLeg
		{
			OFFSET -0.038290 -0.382569 -0.008850
			CHANNELS 3 Zrotation Yrotation Xrotation
			JOINT RightFoot
			{
				OFFSET 0.015774 -0.398415 -0.042312
				CHANNELS 3 Zrotation Yrotation Xrotation
				JOINT RightToe
				{
					OFFSET -0.025372 -0.048144 0.123348
					CHANNELS 3 Zrotation Yrotation Xrotation
					End Site
					{
						OFFSET 0.000000 0.000000 0.000000
					}
				}
			}
		}
	}
	JOINT Spine
	{
		OFFSET -0.002533 0.108963 -0.026696
		CHANNELS 3 Zrotation Yrotation Xrotation
		JOINT Spine1
		{
			OFFSET 0.005487 0.135180 0.001092
			CHANNELS 3 Zrotation Yrotation Xrotation
			JOINT Spine2
			{
				OFFSET 0.001457 0.052922 0.025425
				CHANNELS 3 Zrotation Yrotation Xrotation
				JOINT Neck
				{
					OFFSET -0.002778 0.213870 -0.042857
					CHANNELS 3 Zrotation Yrotation Xrotation
					JOINT Head
					{
						OFFSET 0.005152 0.064970 0.051349
						CHANNELS 3 Zrotation Yrotation Xrotation
						End Site
						{
							OFFSET 0.000000 0.000000 0.000000
						}
					}
				}
				JOINT LeftShoulder
				{
					OFFSET 0.078845 0.121749 -0.034090
					CHANNELS 3 Zrotation Yrotation Xrotation
					JOINT LeftArm
					{
						OFFSET 0.090977 0.030469 -0.008868
						CHANNELS 3 Zrotation Yrotation Xrotation
						JOINT LeftForeArm
						{
							OFFSET 0.259612 -0.012772 -0.027456
							CHANNELS 3 Zrotation Yrotation Xrotation
							JOINT LeftHand
							{
								OFFSET 0.249234 0.008986 -0.001171
								CHANNELS 3 Zrotation Yrotation Xrotation
								End Site
								{
									OFFSET 0.000000 0.000000 0.000000
								}
							}
						}
					}
				}
				JOINT RightShoulder
				{
					OFFSET -0.081759 0.118833 -0.038615
					CHANNELS 3 Zrotation Yrotation Xrotation
					JOINT RightArm
					{
						OFFSET -0.096012 0.032551 -0.009143
						CHANNELS 3 Zrotation Yrotation Xrotation
						JOINT RightForeArm
						{
							OFFSET -0.253742 -0.013329 -0.021401
							CHANNELS 3 Zrotation Yrotation Xrotation
							JOINT RightHand
							{
								OFFSET -0.255298 0.007772 -0.005559
								CHANNELS 3 Zrotation Yrotation Xrotation
								End Site
								{
									OFFSET 0.000000 0.000000 0.000000
								}
							}
						}
					}
				}
			}
		}
	}
}
MOTION
Frames: 13
Frame Time: 0.050000
0.000000 0.921167 0.000000 -1.737123 -3.045003 3.010996 -1.272695 -0.520900 -5.264331 -3.463294 0.459529 16.694005 4.898303 8.013304 -9.953103 0.000000 0.000000 0.000000 -5.352299 2.202688 -32.181166 4.542667 -0.389867 13.555598 -1.418259 -6.297977 6.354855 0.000000 0.000000 0.000000 4.711655 -1.502503 18.116473 -3.628205 1.468146 -16.378797 -3.166374 2.555857 23.087702 10.552837 -5.311967 -20.218577 0.000000 0.000000 0.000000 -9.520755 -22.327698 9.192248 -42.161313 -18.837751 -0.222646 -0.596068 -28.136431 1.245297 0.000000 0.000000 0.000000 23.041089 9.404130 4.400617 47.719283 18.388728 0.459931 -3.996963 32.229976 0.429169 0.000000 0.000000 0.000000 
-0.010658 0.913507 0.035698 -1.645409 -2.856315 4.350172 -0.753502 -0.431053 -4.521576 -3.781390 0.557448 18.307789 4.254343 5.849251 -11.199117 0.000000 0.000000 0.000000 -6.203546 2.105030 -33.997950 3.720690 -0.304134 6.654287 0.094162 -3.448973 7.448085 0.000000 0.000000 0.000000 4.160136 -1.489057 18.979350 -3.071095 1.277944 -20.916041 -2.985063 1.364870 27.862380 10.851589 -5.692913 -21.633994 0.000000 0.000000 0.000000 -9.740166 -22.476674 9.613992 -41.960406 -20.480900 -0.150266 1.720476 -27.031805 0.707553 0.000000 0.000000 0.000000 22.767787 12.133509 5.766123 46.521644 19.870502 0.572794 -7.101105 31.589087 -0.428808 0.000000 0.000000 0.000000 
-0.022987 0.905345 0.072223 -1.207844 0.209368 5.268144 0.261447 -0.351364 -3.889904 -3.529290 0.322233 19.548192 4.794763 5.442556 -14.302335 0.000000 0.000000 0.000000 -6.330885 1.765202 -34.748937 2.105682 -0.104463 5.569884 0.099452 -2.860125 6.755588 0.000000 0.000000 0.000000 5.550435 -1.862560 18.834022 -3.004847 1.331744 -18.271505 -3.525439 1.823572 26.813750 11.266761 -4.660773 -26.049551 0.000000 0.000000 0.000000 -9.746563 -24.160078 9.973567 -40.395627 -24.661523 1.304373 1.440363 -26.413496 0.667525 0.000000 0.000000 0.000000 21.638948 10.824323 5.598809 47.850551 21.017056 1.138169 -9.937911 30.333707 -0.971278 0.000000 0.000000 0.000000 
-0.037132 0.899155 0.110154 -0.912631 1.032862 7.063896 1.285730 -0.468592 -5.393793 -3.556673 0.263505 23.478537 4.705359 4.355283 -15.637759 0.000000 0.000000 0.000000 -7.364447 1.510344 -38.549023 2.758978 -0.186088 7.501129 -0.301168 -4.689029 9.655267 0.000000 0.000000 0.000000 6.514439 -2.221157 19.832243 -3.562937 1.491656 -18.772516 -3.665068 1.107008 27.663646 11.218348 -4.779576 -25.686388 0.000000 0.000000 0.000000 -9.669407 -24.908355 10.401564 -40.101530 -24.918171 1.266465 2.410546 -28.186131 0.497890 0.000000 0.000000 0.000000 20.499610 11.722660 5.991746 46.445314 22.811618 1.636446 -9.890220 29.242957 -0.963793 0.000000 0.000000 0.000000 
-0.052830 0.894816 0.149263 -0.990813 2.579097 8.164244 2.289241 -0.593263 -7.200096 -3.297701 -0.006414 27.907177 4.916525 5.226452 -14.422364 0.000000 0.000000 0.000000 -7.245457 1.364867 -40.251869 3.754198 -0.377575 10.866627 -1.428409 -7.287850 11.496954 0.000000 0.000000 0.000000 7.511116 -2.854865 22.485452 -2.808009 1.306156 -17.515885 -4.541852 1.576978 25.490873 12.808121 -5.553525 -24.822639 0.000000 0.000000 0.000000 -10.093214 -27.246306 11.304329 -38.796029 -26.908325 1.995054 3.156770 -28.251744 0.252224 0.000000 0.000000 0.000000 19.653357 12.858219 6.905334 45.903417 25.470468 2.773128 -12.022769 27.491420 -1.331948 0.000000 0.000000 0.000000 
-0.068402 0.892013 0.186262 -1.099813 2.711502 10.717244 3.598762 -0.785602 -10.503603 -4.011404 0.204827 32.505354 5.215059 7.779469 -10.622339 0.000000 0.000000 0.000000 -6.635569 1.676531 -44.582698 4.704583 -0.622305 15.927721 -1.270701 -7.119943 11.902429 0.000000 0.000000 0.000000 7.931626 -3.271580 24.242110 -3.279559 1.426481 -16.438087 -3.698383 1.176373 24.121122 12.476381 -5.166032 -25.594835 0.000000 0.000000 0.000000 -9.981062 -26.594421 11.163974 -39.210296 -29.106238 2.803771 5.204821 -27.401690 -0.204795 0.000000 0.000000 0.000000 19.519853 15.255483 8.154568 42.380741 29.978888 4.014471 -14.278766 24.152996 -1.617604 0.000000 0.000000 0.000000 
-0.082745 0.889395 0.219661 -1.522783 2.314894 13.010607 5.648286 -1.004105 -17.076786 -6.155038 1.324198 42.859090 5.746181 10.387057 -7.407753 0.000000 0.000000 0.000000 -6.311653 2.034074 -49.268073 7.289035 -1.468123 21.979840 -2.138511 -9.202107 13.186650 0.000000 0.000000 0.000000 8.262997 -3.730881 26.711569 -2.941094 1.297212 -16.374177 -3.214533 3.741561 23.886879 13.780781 -5.578084 -25.356709 0.000000 0.000000 0.000000 -10.533362 -28.994672 12.056027 -36.447042 -30.452211 2.829276 7.351676 -28.946549 -0.828704 0.000000 0.000000 0.000000 19.091678 16.230115 9.353865 36.823059 32.799562 3.773520 -14.344206 22.500969 -1.492009 0.000000 0.000000 0.000000 
-0.094763 0.884168 0.248507 -1.756852 1.091544 14.099717 8.634930 -0.779207 -24.034530 -10.486834 4.794292 53.578384 6.415556 13.180749 -2.244107 0.000000 0.000000 0.000000 -5.686106 2.786684 -53.596389 9.142292 -2.284073 28.316545 -2.730777 -10.855432 14.851648 0.000000 0.000000 0.000000 7.644679 -4.136806 31.954469 -3.117988 1.311671 -16.240891 -2.277673 5.993263 21.937221 13.696056 -5.235584 -25.190061 0.000000 0.000000 0.000000 -12.213869 -32.008340 13.604607 -31.693015 -31.621644 2.552807 9.512435 -28.342194 -1.400545 0.000000 0.000000 0.000000 19.132651 18.830945 11.321209 29.978792 35.031434 3.003401 -15.443671 21.182060 -1.610715 0.000000 0.000000 0.000000 
-0.104859 0.871683 0.273601 -0.927921 1.399620 15.204746 10.659947 -0.486355 -32.356248 -14.505383 8.668459 62.570415 8.110930 16.719103 -3.769963 0.000000 0.000000 0.000000 -6.343340 2.536729 -57.592826 10.390602 -3.174739 34.160818 -3.783074 -12.413380 12.676028 0.000000 0.000000 0.000000 6.230838 -4.389823 37.902319 -2.796862 1.221377 -17.308717 -1.845705 6.960669 22.003014 14.960822 -5.895618 -24.649762 0.000000 0.000000 0.000000 -11.663837 -35.952628 15.311755 -24.885975 -33.878407 1.792854 11.941019 -25.306965 -1.812911 0.000000 0.000000 0.000000 18.182112 22.404464 13.523679 21.891154 36.581760 1.535010 -16.779851 18.887971 -1.666737 0.000000 0.000000 0.000000 
-0.113072 0.854340 0.295273 -0.299802 1.041091 16.780610 13.091377 0.341515 -41.220830 -18.726369 12.737512 64.959840 9.781228 20.437362 -5.095619 0.000000 0.000000 0.000000 -6.784894 2.563686 -61.808031 11.218830 -3.967818 40.128559 -4.112305 -12.559193 9.011937 0.000000 0.000000 0.000000 4.600463 -4.262826 43.356691 -2.026222 1.004715 -18.169381 -2.242534 8.783195 21.217308 16.468904 -6.468208 -24.597199 0.000000 0.000000 0.000000 -11.467455 -40.476520 17.313855 -18.040611 -34.262084 0.548147 14.309966 -22.922108 -2.127828 0.000000 0.000000 0.000000 18.068504 24.691054 15.397561 13.377124 37.439501 -0.319512 -17.748961 17.352949 -1.684646 0.000000 0.000000 0.000000 
-0.119453 0.833899 0.314451 0.360349 1.051916 18.568027 14.921177 1.286629 -49.511362 -23.072188 15.680965 62.412345 10.646601 22.655173 -7.832627 0.000000 0.000000 0.000000 -7.892336 2.050629 -67.023114 12.266474 -5.129020 46.689233 -4.171965 -12.074298 5.334349 0.000000 0.000000 0.000000 3.949159 -4.533805 48.767759 -2.411273 1.109695 -19.671806 -2.122281 8.910992 21.342427 15.927010 -5.884269 -25.173087 0.000000 0.000000 0.000000 -7.725424 -42.807537 17.498066 -11.861657 -35.816709 -0.768841 16.306335 -20.464125 -2.256687 0.000000 0.000000 0.000000 14.713502 26.785458 15.652674 6.652273 38.337498 -1.752139 -19.048990 14.551942 -1.507631 0.000000 0.000000 0.000000 
-0.123745 0.807422 0.331425 1.224865 0.910755 19.682941 16.352447 2.269484 -55.477567 -27.402222 17.898969 58.400109 10.802637 23.414516 -11.009864 0.000000 0.000000 0.000000 -8.978266 1.456626 -71.555027 13.709697 -6.710140 53.184850 -4.825133 -12.922148 1.588419 0.000000 0.000000 0.000000 3.245353 -4.746234 54.997029 -2.441505 1.124494 -22.620605 -2.751490 8.683170 23.113549 17.170243 -6.460767 -26.019454 0.000000 0.000000 0.000000 -3.279423 -45.843211 17.533128 -4.193273 -36.034820 -2.597960 17.768600 -16.894557 -2.099072 0.000000 0.000000 0.000000 12.042015 28.388286 15.641222 -0.140550 39.086303 -3.445728 -20.912151 12.012498 -1.350736 0.000000 0.000000 0.000000 
-0.126565 0.778114 0.347150 1.563895 1.131227 20.941156 17.790021 3.270617 -60.401632 -30.351532 19.967553 57.935058 10.615667 23.053706 -11.879134 0.000000 0.000000 0.000000 -10.492755 0.274898 -75.690833 16.972808 -9.785359 58.484513 -5.948820 -15.051827 -2.810303 0.000000 0.000000 0.000000 3.123968 -5.320971 60.358913 -2.984105 1.240130 -23.645021 -3.262902 7.919146 22.359076 17.128724 -6.639448 -25.077903 0.000000 0.000000 0.000000 3.586024 -47.068251 15.798753 1.196520 -36.536416 -3.886027 18.958882 -13.041103 -1.769204 0.000000 0.000000 0.000000 10.484673 30.444413 16.205291 -7.491388 39.049685 -5.302852 -22.673316 7.521795 -0.734696 0.000000 0.000000 0.000000 
